<svg width="171" height="20" viewBox="0 0 171 20" fill="none" xmlns="http://www.w3.org/2000/svg">
<path d="M162.548 20C167.244 20 170.167 16.5392 170.167 12.0742C170.167 10.3908 169.893 8.87083 167.982 8.41417C168.447 7.14083 169.788 3.4575 169.788 2.2775C169.788 1.23833 169.163 0.3675 168.049 0.3675C166.273 0.3675 164.682 5.51167 164.183 6.73833C163.798 5.625 161.991 0 160.398 0C159.161 0 158.58 0.894167 158.58 2.01917C158.58 3.39833 159.941 6.9725 160.434 8.3475C160.184 8.2575 159.913 8.17917 159.638 8.17917C158.706 8.17917 157.715 9.31583 157.715 10.2342C157.715 10.5817 157.91 11.07 158.033 11.3942C156.565 11.785 156 12.7458 156 14.195C155.996 17.015 158.719 20 162.548 20ZM166.573 4.21917C166.733 3.73833 167.413 1.7075 168.049 1.7075C168.392 1.7075 168.483 2.055 168.483 2.3325C168.483 3.07833 166.948 7.2 166.608 8.11333L165.255 7.87917L166.573 4.21917ZM159.83 1.8875V1.88667C159.83 1.42167 160.408 0.101667 161.673 3.72667L163.05 7.645C162.429 7.59417 161.948 7.5275 161.642 7.7C161.208 6.575 159.83 3.02417 159.83 1.8875ZM159.738 9.53083L159.739 9.53167C160.905 9.53167 162.41 13.2267 162.41 13.7267C162.41 13.9258 162.215 14.1717 161.988 14.1717C161.156 14.1717 158.927 11.1675 158.927 10.355C158.93 10.0542 159.432 9.53083 159.738 9.53083ZM158.398 12.5892C158.852 12.5892 160.559 14.945 160.559 15.445C160.559 15.6367 160.253 15.7692 160.094 15.7692C159.453 15.7692 159.203 15.1633 158.061 13.7617C156.878 14.9217 158.877 17.1558 160.382 17.1558C161.42 17.1558 162.097 16.2108 161.894 15.515C162.042 15.515 162.224 15.5267 162.36 15.4917C162.404 16.55 162.723 17.8117 164.02 17.9017C164.02 17.8667 164.1 17.6242 164.1 17.6125C164.1 16.9325 163.678 16.3392 163.678 15.6475C163.678 14.5417 164.542 13.4717 165.418 12.8467C165.736 12.6125 166.123 12.4675 166.496 12.335C166.883 12.1908 167.293 12.0225 167.586 11.7333C167.542 11.2958 167.359 10.9092 166.913 10.9092C165.811 10.9092 162.113 11.0658 162.113 9.35833C162.113 9.09667 162.118 8.84667 162.807 8.84667C164.093 8.84667 167.357 9.15917 168.312 9.98333C169.032 10.6125 169.279 14.405 167.078 16.8075L167.075 16.8083C165.917 18.0583 164.436 18.7067 162.708 18.7067C160.344 18.7067 158.477 17.4333 157.578 15.2575C156.897 13.5625 157.729 12.5892 158.398 12.5892ZM163.149 11.8858C163.537 12.0075 163.934 12.0433 164.333 12.1208C164.038 12.3317 163.776 12.59 163.524 12.8667C163.413 12.535 163.277 12.2108 163.149 11.8858Z" fill="#505F79"/>
<path d="M97.4042 3.88042L99 2.33768V2H93.4717L89.5317 11.9099L85.0492 2H79.2525V2.33768L81.1167 4.60547C81.2983 4.77305 81.3933 5.01811 81.3692 5.26484V14.1768C81.4267 14.4977 81.3233 14.8278 81.1 15.0611L79 17.6328V17.9663H84.9542V17.6286L82.8542 15.0611C82.6267 14.8269 82.5192 14.5027 82.565 14.1768V6.46821L87.7917 17.9705H88.3992L92.8933 6.46821V15.6312C92.8933 15.8728 92.8933 15.9225 92.7367 16.0808L91.12 17.6615V18H98.9633V17.6623L97.405 16.1204C97.2683 16.016 97.1975 15.8408 97.2267 15.6707V4.33011C97.1975 4.15916 97.2675 3.984 97.4042 3.88042Z" fill="#505F79"/>
<path d="M52.6444 3.03455C49.1556 3.03455 46.2886 5.86213 46.2886 9.37937V19.3104C46.2886 19.6897 46.5995 20.0001 46.9794 20.0001H50.5718C50.9518 20.0001 51.2627 19.6897 51.2627 19.3104V9.65524C51.2627 8.89661 51.8844 8.27592 52.6444 8.27592C53.4043 8.27592 54.0261 8.89661 54.0261 9.65524V19.3104C54.0261 19.6897 54.3369 20.0001 54.7169 20.0001H58.3093C58.6893 20.0001 59.0001 19.6897 59.0001 19.3104V9.37937C59.0001 5.89662 56.1677 3.03455 52.6444 3.03455Z" fill="#505F79"/>
<path d="M41.487 0C40.1054 0 39 1.10345 39 2.48276C39 3.86207 40.1054 4.96552 41.487 4.96552C42.8687 4.96552 43.9741 3.86207 43.9741 2.48276C43.9741 1.10345 42.8687 0 41.487 0Z" fill="#505F79"/>
<path d="M43.2832 6.27588H39.6908C39.3109 6.27588 39 6.58622 39 6.96553V19.3104C39 19.6897 39.3109 20 39.6908 20H43.2832C43.6632 20 43.9741 19.6897 43.9741 19.3104V6.96553C43.9741 6.58622 43.6632 6.27588 43.2832 6.27588Z" fill="#505F79"/>
<path d="M136.985 7.46114C136.985 6.32124 136.619 5.25043 135.921 4.31779C136.187 3.41969 136.253 2.27979 136.187 0.967185C136.153 0.414508 135.721 0 135.189 0C134.889 0 132.36 0.0345423 130.896 1.38169C129.632 1.1399 128.301 1.1399 127.004 1.38169C125.573 0.0345423 123.044 0 122.712 0C122.179 0 121.747 0.414508 121.713 0.967185C121.614 2.27979 121.713 3.41969 121.98 4.31779C121.281 5.28497 120.915 6.35579 120.915 7.46114C120.915 9.8791 122.712 12.0553 125.44 13.0915C125.34 13.2988 125.274 13.5406 125.207 13.7824C122.312 13.4715 120.948 10.7427 120.882 10.639C120.649 10.1209 120.05 9.91364 119.551 10.19C119.052 10.4318 118.852 11.0535 119.118 11.5717C119.185 11.7444 121.015 15.4404 125.041 15.8549V18.9637C125.041 19.5509 125.473 20 126.039 20H131.861C132.427 20 132.86 19.5509 132.86 18.9637V14.8532C132.86 14.2314 132.726 13.6442 132.494 13.1261C135.189 12.0553 136.985 9.91364 136.985 7.46114Z" fill="#505F79"/>
<path d="M19.7587 0.394423C19.4253 -0.00424693 18.8587 -0.103914 18.4253 0.195088L16.492 1.52399C15.592 0.560536 14.3253 0.0289756 12.9587 0.0289756C10.2587 0.0289756 8.02532 2.22166 8.02532 4.94591C8.02532 5.34458 8.05865 5.71002 8.15865 6.07547C5.82532 5.57713 4.42532 3.88279 3.89198 0.826316C3.82532 0.427646 3.52532 0.128643 3.12532 0.0289756C2.75865 -0.070692 2.35865 0.0954206 2.12532 0.394423C2.05865 0.460868 -3.44135 8.10205 4.52532 14.5804C3.75865 16.2083 1.45865 17.6037 0.558651 18.0688C0.125318 18.2681 -0.0746825 18.7332 0.0253175 19.1984C0.125318 19.6635 0.525318 19.9625 0.991984 19.9625H2.72532C12.8587 19.9625 17.4587 14.9459 17.5587 3.71667L19.6587 1.72332C20.0587 1.3911 20.092 0.793093 19.7587 0.394423Z" fill="#505F79"/>
</svg>
